Coordinates
version=1
nRows=27
nColumns=38
inDegrees=no

Units are S.I. units (second, meters, Newtons, ...)
If the header above contains a line with 'inDegrees', this indicates whether rotational values are in degrees (yes) or radians (no).

endheader
time	pelvis_tilt	pelvis_list	pelvis_rotation	pelvis_tx	pelvis_ty	pelvis_tz	hip_flexion_r	hip_adduction_r	hip_rotation_r	knee_angle_r	ankle_angle_r	subtalar_angle_r	mtp_angle_r	hip_flexion_l	hip_adduction_l	hip_rotation_l	knee_angle_l	ankle_angle_l	subtalar_angle_l	mtp_angle_l	lumbar_extension	lumbar_bending	lumbar_rotation	arm_flex_r	arm_add_r	arm_rot_r	elbow_flex_r	pro_sup_r	wrist_flex_r	wrist_dev_r	arm_flex_l	arm_add_l	arm_rot_l	elbow_flex_l	pro_sup_l	wrist_flex_l	wrist_dev_l
0	-0.316659	1.30442	1.82545	0.973894	-0.22307	1.01367	0.32176	-0.158187	0.0115548	1.09385	-0.55828	0	0	0.463712	0.0773117	-0.293468	0.28778	-0.157376	0	0	0.155281	-0.108062	0.0695656	-0.016747	-0.24866	0.490808	0.496263	1.28608	0	0	-0.238943	-0.153321	-0.331601	0.538006	0.872258	0	0
0.01	-0.306111	1.3045	1.81159	0.973561	-0.212255	1.01515	0.355573	-0.1568	0.0168488	1.13467	-0.519718	0	0	0.453446	0.0736419	-0.300486	0.293135	-0.149306	0	0	0.156024	-0.10428	0.067043	-0.0151262	-0.250473	0.516278	0.490698	1.28374	0	0	-0.237171	-0.151205	-0.338771	0.53467	0.878496	0	0
0.02	-0.295594	1.30691	1.8008	0.972975	-0.20049	1.0172	0.381003	-0.154842	0.0190345	1.16355	-0.478949	0	0	0.43507	0.0723623	-0.300042	0.284287	-0.146391	0	0	0.156067	-0.100188	0.0616926	-0.014793	-0.251732	0.541674	0.483216	1.2813	0	0	-0.235129	-0.148472	-0.348017	0.526913	0.883636	0	0
0.03	-0.282409	1.31058	1.78983	0.972169	-0.188459	1.01947	0.402766	-0.152921	0.017158	1.18576	-0.435613	0	0	0.414916	0.0708802	-0.297883	0.274142	-0.144824	0	0	0.15533	-0.0955111	0.0542915	-0.0156424	-0.253992	0.567592	0.476984	1.27782	0	0	-0.232993	-0.145506	-0.358276	0.517862	0.88856	0	0
0.04	-0.266558	1.31507	1.77602	0.971364	-0.176513	1.02181	0.423125	-0.149858	0.0146721	1.20196	-0.401983	0	0	0.394335	0.0682665	-0.295631	0.26446	-0.143783	0	0	0.152674	-0.0901405	0.0488212	-0.0185541	-0.257565	0.587094	0.475124	1.27142	0	0	-0.2306	-0.143282	-0.365474	0.510419	0.893493	0	0
0.05	-0.246943	1.31744	1.7598	0.970595	-0.164607	1.0239	0.444604	-0.146304	0.0102435	1.21374	-0.35147	0	0	0.3767	0.0657852	-0.288529	0.25588	-0.141771	0	0	0.150389	-0.0843543	0.045386	-0.0336265	-0.251564	0.536896	0.476532	1.34557	0	0	-0.227278	-0.143738	-0.361992	0.503285	0.890658	0	0
0.06	-0.225532	1.31984	1.74179	0.969923	-0.152633	1.02588	0.464714	-0.141867	0.00534239	1.2193	-0.323711	0	0	0.358992	0.0627633	-0.282722	0.248294	-0.140154	0	0	0.150885	-0.0784864	0.0377431	-0.0392575	-0.254423	0.544751	0.477315	1.34383	0	0	-0.228456	-0.142481	-0.367497	0.498349	0.892843	0	0
0.07	-0.203599	1.32179	1.72254	0.969367	-0.140615	1.02772	0.484684	-0.136612	0.00119358	1.21978	-0.298879	0	0	0.341102	0.0597309	-0.279003	0.24046	-0.138791	0	0	0.152163	-0.0726545	0.0306954	-0.0453366	-0.257224	0.550002	0.478561	1.3378	0	0	-0.230898	-0.141294	-0.373276	0.494827	0.894259	0	0
0.08	-0.180746	1.32348	1.70164	0.968894	-0.128645	1.02945	0.504228	-0.130464	-0.00274107	1.21542	-0.275437	0	0	0.322622	0.0566945	-0.276673	0.231251	-0.137837	0	0	0.153188	-0.0668149	0.0245413	-0.0512703	-0.260124	0.555577	0.479029	1.32974	0	0	-0.233662	-0.14025	-0.378785	0.49235	0.895798	0	0
0.09	-0.156581	1.32526	1.67935	0.96846	-0.116812	1.03106	0.522654	-0.123538	-0.00689577	1.20644	-0.254496	0	0	0.303544	0.0534845	-0.274787	0.220934	-0.137466	0	0	0.153248	-0.0607808	0.0185546	-0.0565677	-0.263027	0.560629	0.47911	1.31873	0	0	-0.236397	-0.139393	-0.383769	0.490913	0.897764	0	0
0.1	-0.132209	1.32659	1.65628	0.968154	-0.105122	1.03248	0.540848	-0.116048	-0.0108559	1.19378	-0.242959	0	0	0.284702	0.0498399	-0.274647	0.209952	-0.13734	0	0	0.151056	-0.0543991	0.0170195	-0.0700168	-0.259715	0.518197	0.482236	1.35593	0	0	-0.238491	-0.145166	-0.358686	0.491179	0.874068	0	0
0.11	-0.105386	1.32706	1.63133	0.967853	-0.093502	1.03368	0.558381	-0.108072	-0.0156762	1.17731	-0.213816	0	0	0.266165	0.0459168	-0.27154	0.196868	-0.136888	0	0	0.154217	-0.0482267	0.00683515	-0.0655828	-0.269935	0.573544	0.480031	1.27852	0	0	-0.241973	-0.13762	-0.39574	0.4895	0.903529	0	0
0.12	-0.0772739	1.32891	1.60581	0.967579	-0.0819922	1.0348	0.572916	-0.100173	-0.0220461	1.15676	-0.185346	0	0	0.246317	0.0412653	-0.268109	0.183534	-0.137827	0	0	0.146094	-0.0407456	0.0118172	-0.0892977	-0.262234	0.480928	0.492158	1.34523	0	0	-0.237831	-0.146102	-0.359	0.490002	0.876233	0	0
0.13	-0.0486229	1.33	1.58024	0.967344	-0.0704701	1.03569	0.586889	-0.0928741	-0.0302609	1.13244	-0.164341	0	0	0.227891	0.0358858	-0.266483	0.171665	-0.138261	0	0	0.143707	-0.0341238	0.00663931	-0.0945638	-0.263899	0.475411	0.492774	1.32679	0	0	-0.238839	-0.146534	-0.360478	0.49109	0.875741	0	0
0.14	-0.0212942	1.32953	1.55624	0.967151	-0.0589269	1.03632	0.601464	-0.0865346	-0.0399077	1.10492	-0.153702	0	0	0.211803	0.0303638	-0.267384	0.161905	-0.13818	0	0	0.145229	-0.028501	-0.00371961	-0.0920878	-0.266662	0.497727	0.484683	1.29227	0	0	-0.242378	-0.141988	-0.385849	0.492774	0.89217	0	0
0.15	0.00531388	1.33108	1.53394	0.966867	-0.0473814	1.03695	0.612335	-0.0818531	-0.0526289	1.07389	-0.137284	0	0	0.192392	0.0258122	-0.266941	0.150757	-0.138701	0	0	0.140179	-0.0223444	-0.00764272	-0.099008	-0.264977	0.474981	0.483652	1.29214	0	0	-0.240953	-0.143452	-0.382775	0.494028	0.887664	0	0
0.16	0.0314104	1.33273	1.51343	0.966469	-0.0358179	1.03744	0.621251	-0.078428	-0.0677186	1.03886	-0.124099	0	0	0.172872	0.0216965	-0.265564	0.139674	-0.139598	0	0	0.134289	-0.0165042	-0.0122552	-0.104881	-0.263108	0.453693	0.481472	1.29048	0	0	-0.239058	-0.144937	-0.379386	0.495924	0.883227	0	0
0.17	0.0551211	1.33353	1.4962	0.966068	-0.0242745	1.03765	0.629183	-0.0756929	-0.0830715	0.999133	-0.114225	0	0	0.154995	0.0178061	-0.264947	0.130089	-0.140537	0	0	0.129341	-0.0112657	-0.017732	-0.109401	-0.26089	0.435651	0.477491	1.28934	0	0	-0.237277	-0.146654	-0.375889	0.498019	0.878559	0	0
0.18	0.0755983	1.33211	1.4827	0.965706	-0.0127664	1.03748	0.63728	-0.0724363	-0.0968827	0.953894	-0.107959	0	0	0.140559	0.0139624	-0.266134	0.122768	-0.140834	0	0	0.127354	-0.00672471	-0.0242321	-0.11304	-0.258604	0.421424	0.472005	1.28712	0	0	-0.236139	-0.148202	-0.373805	0.499957	0.87403	0	0
0.19	0.0945669	1.3299	1.47097	0.965361	-0.00113075	1.03714	0.64367	-0.0685289	-0.109514	0.903079	-0.104158	0	0	0.126348	0.0107304	-0.262364	0.114311	-0.140678	0	0	0.132247	-0.00305393	-0.0348503	-0.106067	-0.266662	0.481201	0.459673	1.20065	0	0	-0.238522	-0.147513	-0.382388	0.50066	0.874968	0	0
0.2	0.109704	1.32881	1.46227	0.965129	0.0104618	1.03669	0.647381	-0.0642813	-0.119363	0.848433	-0.104618	0	0	0.111144	0.00815795	-0.259012	0.106137	-0.14235	0	0	0.129072	0.00125747	-0.0326049	-0.120137	-0.253754	0.402612	0.453797	1.27274	0	0	-0.234259	-0.158021	-0.339689	0.501563	0.837883	0	0
0.21	0.121509	1.32594	1.45581	0.965034	0.0221237	1.03586	0.65124	-0.0590836	-0.12613	0.789676	-0.103593	0	0	0.0985071	0.0055357	-0.257986	0.0995423	-0.14188	0	0	0.133504	0.00376524	-0.0395976	-0.116012	-0.257431	0.439349	0.440903	1.22763	0	0	-0.233425	-0.152624	-0.36938	0.501582	0.862183	0	0
0.22	0.131852	1.32336	1.45032	0.965026	0.0338154	1.03486	0.65245	-0.053131	-0.131372	0.725653	-0.106958	0	0	0.085386	0.00321591	-0.255968	0.0925092	-0.140982	0	0	0.13497	0.00684675	-0.0415022	-0.119268	-0.253663	0.423984	0.430843	1.23865	0	0	-0.231197	-0.154859	-0.364066	0.502288	0.856494	0	0
0.23	0.140147	1.31986	1.44658	0.965028	0.0455414	1.03357	0.651951	-0.0463823	-0.13452	0.655412	-0.113508	0	0	0.073967	0.000958207	-0.256087	0.0874607	-0.138759	0	0	0.137486	0.00960338	-0.0433642	-0.122128	-0.250355	0.41073	0.420579	1.24767	0	0	-0.229489	-0.157077	-0.358777	0.503743	0.851811	0	0
0.24	0.14617	1.31613	1.44494	0.965063	0.0573179	1.03205	0.649036	-0.0392709	-0.134296	0.579401	-0.123414	0	0	0.0635025	-0.0011968	-0.256646	0.0837478	-0.136193	0	0	0.140183	0.0118591	-0.0451185	-0.124029	-0.247271	0.400093	0.409806	1.25566	0	0	-0.227912	-0.159277	-0.353804	0.505687	0.847094	0	0
0.25	0.149617	1.31214	1.44574	0.965197	0.0691678	1.03031	0.643647	-0.0318823	-0.129526	0.497737	-0.136542	0	0	0.0536195	-0.00290618	-0.255943	0.0806549	-0.133115	0	0	0.143235	0.0135246	-0.0469912	-0.125071	-0.244165	0.392476	0.398166	1.26329	0	0	-0.226745	-0.161389	-0.349657	0.508189	0.841673	0	0
0.26	0.150463	1.30874	1.44991	0.96523	0.081215	1.02839	0.634669	-0.0254651	-0.121916	0.410818	-0.152156	0	0	0.0431256	-0.0039089	-0.25512	0.0782085	-0.129477	0	0	0.146114	0.0145039	-0.0502216	-0.125623	-0.2415	0.386885	0.38658	1.27037	0	0	-0.226577	-0.16337	-0.345843	0.511374	0.835683	0	0
